<svg width="64" height="64" viewBox="0 0 64 64" fill="none" xmlns="http://www.w3.org/2000/svg">
<path d="M41.4275 11.9051C38.9091 9.38667 35.5627 8 32.0003 8C28.4403 8 25.0915 9.38667 22.5707 11.9051C20.0537 14.4245 18.667 17.7733 18.667 21.3333V42.6667C18.667 46.2291 20.0537 49.5755 22.5721 52.0939C25.0929 54.612 28.4403 56 32.0003 56C35.5603 56 38.9091 54.612 41.4275 52.0939C43.9459 49.5757 45.3337 46.2267 45.3337 42.6667V21.3333C45.3337 17.7733 43.9457 14.4259 41.4275 11.9051ZM37.6566 48.3229C34.6566 51.3229 29.3481 51.3229 26.3427 48.3229C24.8545 46.8333 24.0003 44.7733 24.0003 42.6667V21.3333C24.0003 19.1965 24.8323 17.1875 26.3427 15.6771C27.8545 14.1653 29.8635 13.3333 32.0003 13.3333C34.1059 13.3333 36.167 14.1875 37.6566 15.6757C39.167 17.1888 40.0003 19.1979 40.0003 21.3333V42.6667C40.0003 44.7709 39.1462 46.8333 37.6566 48.3229Z" fill="#E7BB00"/>
</svg>
