<svg width="64" height="64" viewBox="0 0 64 64" fill="none" xmlns="http://www.w3.org/2000/svg">
<path d="M16.0003 10.6666V16M16.0003 29.3333V53.3333M32.0003 10.6666V37.3333M32.0003 50.6666V53.3333M48.0003 10.6666V13.3333M48.0003 29.3333V53.3333M10.667 18.6666C10.667 17.9594 10.9479 17.2811 11.448 16.781C11.9481 16.2809 12.6264 16 13.3337 16H18.667C19.3742 16 20.0525 16.2809 20.5526 16.781C21.0527 17.2811 21.3337 17.9594 21.3337 18.6666V26.6666C21.3337 27.3739 21.0527 28.0521 20.5526 28.5522C20.0525 29.0523 19.3742 29.3333 18.667 29.3333H13.3337C12.6264 29.3333 11.9481 29.0523 11.448 28.5522C10.9479 28.0521 10.667 27.3739 10.667 26.6666V18.6666ZM26.667 40C26.667 39.2927 26.9479 38.6144 27.448 38.1143C27.9481 37.6142 28.6264 37.3333 29.3337 37.3333H34.667C35.3742 37.3333 36.0525 37.6142 36.5526 38.1143C37.0527 38.6144 37.3337 39.2927 37.3337 40V48C37.3337 48.7072 37.0527 49.3855 36.5526 49.8856C36.0525 50.3857 35.3742 50.6666 34.667 50.6666H29.3337C28.6264 50.6666 27.9481 50.3857 27.448 49.8856C26.9479 49.3855 26.667 48.7072 26.667 48V40ZM42.667 16C42.667 15.2927 42.9479 14.6144 43.448 14.1143C43.9481 13.6142 44.6264 13.3333 45.3337 13.3333H50.667C51.3742 13.3333 52.0525 13.6142 52.5526 14.1143C53.0527 14.6144 53.3337 15.2927 53.3337 16V26.6666C53.3337 27.3739 53.0527 28.0521 52.5526 28.5522C52.0525 29.0523 51.3742 29.3333 50.667 29.3333H45.3337C44.6264 29.3333 43.9481 29.0523 43.448 28.5522C42.9479 28.0521 42.667 27.3739 42.667 26.6666V16Z" stroke="#E7BB00" stroke-width="5" stroke-linecap="round" stroke-linejoin="round"/>
</svg>
