<svg width="64" height="64" viewBox="0 0 64 64" fill="none" xmlns="http://www.w3.org/2000/svg">
<path d="M55.9573 33.4135C56.2502 28.4516 54.9952 23.5211 52.3657 19.303C49.7362 15.0849 45.8619 11.7873 41.2778 9.8656C36.6937 7.94391 31.6261 7.49292 26.7747 8.57493C21.9233 9.65694 17.5275 12.2186 14.1945 15.906C10.8614 19.5935 8.75548 24.2249 8.16754 29.1605C7.57959 34.0962 8.53862 39.0927 10.9122 43.46C13.2858 47.8272 16.9568 51.3498 21.4182 53.5411C25.8797 55.7325 30.9115 56.4846 35.8187 55.6935M32.0003 18.6667V32L40.0003 40M50.667 42.6667L45.3337 50.6667H56.0003L50.667 58.6667" stroke="#E7BB00" stroke-width="5" stroke-linecap="round" stroke-linejoin="round"/>
</svg>
