<svg width="64" height="64" viewBox="0 0 64 64" fill="none" xmlns="http://www.w3.org/2000/svg">
<path d="M34.1949 19.8203C33.6975 19.0976 32.8773 18.6667 32.001 18.6667H31.9997C31.1234 18.6667 30.3045 19.0963 29.8055 19.8176L22.7861 29.9816C20.1311 34.3214 21.1469 39.7968 25.1989 42.9974C25.2002 43 25.2002 43 25.2002 43C27.169 44.552 29.5818 45.328 31.9933 45.328C34.4047 45.328 36.8175 44.552 38.7837 43C42.8437 39.7968 43.8565 34.323 41.117 29.8608L34.1949 19.8203ZM35.4815 38.8126C33.4919 40.3803 30.4933 40.383 28.5063 38.8152C26.6039 37.3099 26.1119 34.7656 27.2551 32.8894L31.9986 26.0262L36.6485 32.767C37.8746 34.7683 37.385 37.3126 35.4815 38.8126ZM31.9997 5.33337C17.2951 5.33337 5.33301 17.2955 5.33301 32C5.33301 46.7032 17.2951 58.6667 31.9997 58.6667C46.7029 58.6667 58.6663 46.7032 58.6663 32C58.6663 17.2955 46.7029 5.33337 31.9997 5.33337ZM31.9997 53.3334C20.2367 53.3334 10.6663 43.763 10.6663 32C10.6663 20.2371 20.2367 10.6667 31.9997 10.6667C43.7626 10.6667 53.333 20.2371 53.333 32C53.333 43.763 43.7626 53.3334 31.9997 53.3334Z" fill="#E7BB00"/>
</svg>
