<svg width="64" height="64" viewBox="0 0 64 64" fill="none" xmlns="http://www.w3.org/2000/svg">
<path d="M31.9999 56C27.8484 54.9232 23.9558 53.0229 20.5533 50.4119C17.1508 47.801 14.3079 44.5328 12.1935 40.8014C10.079 37.0701 8.73624 32.9517 8.24488 28.6912C7.75353 24.4306 8.12364 20.1147 9.33322 16C17.6413 16.3802 25.771 13.5109 31.9999 8C38.2288 13.5109 46.3585 16.3802 54.6666 16C56.1812 21.1547 56.3599 26.552 55.2612 31.7067M50.6689 56C49.2545 56 47.8979 55.4381 46.8977 54.4379C45.8975 53.4377 45.3356 52.0812 45.3356 50.6667C45.3356 49.2522 45.8975 47.8956 46.8977 46.8954C47.8979 45.8952 49.2545 45.3333 50.6689 45.3333M50.6689 56C52.0834 56 53.44 55.4381 54.4402 54.4379C55.4404 53.4377 56.0023 52.0812 56.0023 50.6667C56.0023 49.2522 55.4404 47.8956 54.4402 46.8954C53.44 45.8952 52.0834 45.3333 50.6689 45.3333M50.6689 56V60M50.6689 45.3333V41.3333M58.7514 46L55.2874 48M46.0529 53.3333L42.5863 55.3333M42.5863 46L46.0529 48M55.2874 53.3333L58.7541 55.3333" stroke="#E7BB00" stroke-width="5" stroke-linecap="round" stroke-linejoin="round"/>
</svg>
