<svg width="64" height="64" viewBox="0 0 64 64" fill="none" xmlns="http://www.w3.org/2000/svg">
<path d="M34.7145 55.1653C33.8265 55.4827 32.9199 55.76 31.9999 56C27.8484 54.9232 23.9558 53.0229 20.5533 50.4119C17.1508 47.801 14.3079 44.5328 12.1935 40.8014C10.079 37.0701 8.73624 32.9517 8.24488 28.6912C7.75353 24.4306 8.12364 20.1147 9.33322 16C17.6413 16.3802 25.771 13.5109 31.9999 8C38.2288 13.5109 46.3585 16.3802 54.6666 16C55.8212 19.9253 56.1999 23.9947 55.8292 27.9867M55.9997 40H49.333C48.2721 40 47.2547 40.4214 46.5046 41.1716C45.7544 41.9217 45.333 42.9391 45.333 44C45.333 45.0609 45.7544 46.0783 46.5046 46.8284C47.2547 47.5786 48.2721 48 49.333 48H51.9997C53.0605 48 54.078 48.4214 54.8281 49.1716C55.5782 49.9217 55.9997 50.9391 55.9997 52C55.9997 53.0609 55.5782 54.0783 54.8281 54.8284C54.078 55.5786 53.0605 56 51.9997 56H45.333M50.6663 56V58.6667M50.6663 37.3333V40" stroke="#E7BB00" stroke-width="5" stroke-linecap="round" stroke-linejoin="round"/>
</svg>
