<svg width="64" height="64" viewBox="0 0 64 64" fill="none" xmlns="http://www.w3.org/2000/svg">
<path d="M53.6559 29.0104C52.1455 27.4987 50.1351 26.6667 47.9997 26.6667H42.6663V16C42.6663 13.8632 41.833 11.8541 40.3226 10.3437C37.2991 7.31893 32.0295 7.31893 29.0101 10.3437C27.4983 11.8541 26.6663 13.8632 26.6663 16V18.6667C26.6663 20.8035 25.8343 22.8125 24.3239 24.3229C22.8122 25.8347 20.8031 26.6667 18.6663 26.6667H10.6663C9.24181 26.6667 7.90341 27.2213 6.89541 28.2291C5.88741 29.2368 5.33301 30.5755 5.33301 32V50.6667C5.33301 52.0912 5.88767 53.4296 6.89541 54.4376C7.90314 55.4456 9.24181 56 10.6663 56H15.9997C17.4242 56 18.7626 55.4453 19.7706 54.4376C19.9503 54.2579 20.1157 54.0677 20.2666 53.8672C22.1026 55.2525 24.3277 56 26.6663 56L45.1039 55.9896C45.2837 56.0053 45.4607 56.0131 45.6405 56.0131C47.3957 56.0131 49.0962 55.2709 50.4791 53.888C51.8021 52.5651 52.7629 50.7395 53.2813 48.5235L55.9479 35.1901C55.9815 35.0181 55.9997 34.8411 55.9997 34.6667C55.9997 32.5299 55.1663 30.5208 53.6559 29.0104ZM15.9997 50.6667H10.6663V32H15.9997V50.6667ZM48.0701 47.3933C47.8018 48.5392 47.3175 49.508 46.7082 50.1173C46.4319 50.3933 46.057 50.7032 45.333 50.6667H26.6663C25.2626 50.6667 23.889 50.0963 22.8954 49.1043C21.8877 48.0963 21.333 46.7579 21.333 45.3333V31.7344C23.8773 31.2213 26.2159 29.9728 28.0959 28.0952C30.613 25.5755 31.9997 22.2267 31.9997 18.6667V16C31.9997 15.2981 32.2847 14.612 32.781 14.1147C33.7746 13.1224 35.5543 13.1224 36.5519 14.1147C37.0493 14.612 37.333 15.2981 37.333 16V29.3333C37.333 30.8059 38.5258 32 39.9997 32H47.9997C48.7002 32 49.3877 32.2851 49.885 32.7813C50.3303 33.2267 50.6037 33.8243 50.6559 34.4493L48.0701 47.3933Z" fill="#E7BB00"/>
</svg>
